<svg id="Layer_1" data-name="Layer 1" xmlns="http://www.w3.org/2000/svg" viewBox="0 0 420 30"><title>round-recorder</title><path d="M11.34,20.26V9.67a.49.49,0,0,1,.16-.38.52.52,0,0,1,.4-.16h3q3.68,0,3.68,3.26A3.41,3.41,0,0,1,18,14.52a3,3,0,0,1-1.65,1l2.24,4.21a.53.53,0,0,1,.06.24.79.79,0,0,1-.32.6,1.08,1.08,0,0,1-.7.27.75.75,0,0,1-.67-.5l-2.34-4.59H13v4.48a.48.48,0,0,1-.25.41,1.16,1.16,0,0,1-.6.15,1.13,1.13,0,0,1-.59-.15A.47.47,0,0,1,11.34,20.26ZM13,14.44h1.92c1.32,0,2-.63,2-1.9a1.72,1.72,0,0,0-2-1.91H13Z" style="fill:#018f6e"/><path d="M41.41,17.33V12.67a3.42,3.42,0,0,1,1-2.7A3.78,3.78,0,0,1,45,9.1a3.82,3.82,0,0,1,2.62.87,3.43,3.43,0,0,1,1,2.7v4.66a3.41,3.41,0,0,1-1,2.7A3.82,3.82,0,0,1,45,20.9,3.78,3.78,0,0,1,42.38,20,3.41,3.41,0,0,1,41.41,17.33Zm1.69,0c0,1.37.63,2.06,1.89,2.06a1.87,1.87,0,0,0,1.41-.51,2.15,2.15,0,0,0,.5-1.55V12.67a2.15,2.15,0,0,0-.5-1.55A1.87,1.87,0,0,0,45,10.61c-1.26,0-1.89.69-1.89,2.06Z" style="fill:#4d4d4d"/><path d="M71.34,17.33V9.65a.45.45,0,0,1,.25-.41,1.27,1.27,0,0,1,.6-.14,1.21,1.21,0,0,1,.6.14.44.44,0,0,1,.25.41v7.68a2.11,2.11,0,0,0,.51,1.55,2,2,0,0,0,1.44.51c1.31,0,2-.69,2-2.06V9.65a.44.44,0,0,1,.25-.41,1.21,1.21,0,0,1,.6-.14,1.27,1.27,0,0,1,.6.14.45.45,0,0,1,.25.41v7.68a3.39,3.39,0,0,1-1,2.7,4.5,4.5,0,0,1-5.32,0A3.39,3.39,0,0,1,71.34,17.33Z" style="fill:#4d4d4d"/><path d="M101.31,20.29V9.71c0-.37.28-.56.85-.56a1.2,1.2,0,0,1,.72.2,2.29,2.29,0,0,1,.56.76L107,17V9.7a.44.44,0,0,1,.25-.41,1.21,1.21,0,0,1,.6-.14,1.27,1.27,0,0,1,.6.14.45.45,0,0,1,.25.41V20.29a.49.49,0,0,1-.25.41,1.16,1.16,0,0,1-.6.15,1.09,1.09,0,0,1-1-.63L103,12.94v7.35a.47.47,0,0,1-.25.41,1.14,1.14,0,0,1-.6.15,1.15,1.15,0,0,1-.59-.15A.48.48,0,0,1,101.31,20.29Z" style="fill:#4d4d4d"/><path d="M131.41,20.3V9.7a.49.49,0,0,1,.21-.39,1,1,0,0,1,.54-.16H135a3.82,3.82,0,0,1,2.62.87,3.41,3.41,0,0,1,1,2.7v4.56a3.41,3.41,0,0,1-1,2.7,3.82,3.82,0,0,1-2.62.87h-2.83a1,1,0,0,1-.54-.16A.49.49,0,0,1,131.41,20.3Zm1.69-1H135c1.27,0,1.91-.68,1.91-2.06V12.72c0-1.38-.64-2.06-1.91-2.06H133.1Z" style="fill:#4d4d4d"/><path d="M191.34,20.26V9.67a.49.49,0,0,1,.16-.38.52.52,0,0,1,.4-.16h3q3.67,0,3.68,3.26a3.41,3.41,0,0,1-.61,2.13,3,3,0,0,1-1.65,1l2.24,4.21a.53.53,0,0,1,.06.24.79.79,0,0,1-.32.6,1.08,1.08,0,0,1-.7.27.75.75,0,0,1-.67-.5l-2.34-4.59H193v4.48a.48.48,0,0,1-.25.41,1.16,1.16,0,0,1-.6.15,1.13,1.13,0,0,1-.59-.15A.47.47,0,0,1,191.34,20.26ZM193,14.44h1.92c1.32,0,2-.63,2-1.9a1.72,1.72,0,0,0-2-1.91H193Z" style="fill:#018f6e"/><path d="M221.5,20.29V9.71a.48.48,0,0,1,.22-.41.92.92,0,0,1,.53-.15h5.69a.47.47,0,0,1,.42.23.89.89,0,0,1,.14.51,1,1,0,0,1-.15.54.48.48,0,0,1-.41.23h-4.75v3.66h2.47a.48.48,0,0,1,.4.2.79.79,0,0,1,.15.49.71.71,0,0,1-.14.45.45.45,0,0,1-.41.2h-2.47v3.68h4.75a.48.48,0,0,1,.41.23,1,1,0,0,1,.15.54.89.89,0,0,1-.14.51.47.47,0,0,1-.42.23h-5.69a.92.92,0,0,1-.53-.15A.48.48,0,0,1,221.5,20.29Z" style="fill:#4d4d4d"/><path d="M251.41,17.33V12.67a3.43,3.43,0,0,1,1-2.7A3.74,3.74,0,0,1,255,9.1a4,4,0,0,1,2.63.81,2.56,2.56,0,0,1,1,2.09,1,1,0,0,1-.19.7,1,1,0,0,1-.66.18c-.55,0-.83-.19-.84-.56A1.65,1.65,0,0,0,255,10.61c-1.28,0-1.92.69-1.92,2.06v4.66c0,1.37.66,2.06,2,2.06a2.29,2.29,0,0,0,1-.17,1.09,1.09,0,0,0,.55-.48,2.89,2.89,0,0,0,.23-.56,5.31,5.31,0,0,0,.1-.6c0-.37.31-.56.83-.56a1,1,0,0,1,.66.19.93.93,0,0,1,.2.69,2.64,2.64,0,0,1-1,2.16,4,4,0,0,1-2.64.84,3.71,3.71,0,0,1-2.56-.87A3.41,3.41,0,0,1,251.41,17.33Z" style="fill:#4d4d4d"/><path d="M281.41,17.33V12.67a3.42,3.42,0,0,1,1-2.7A3.78,3.78,0,0,1,285,9.1a3.82,3.82,0,0,1,2.62.87,3.43,3.43,0,0,1,1,2.7v4.66a3.41,3.41,0,0,1-1,2.7,3.82,3.82,0,0,1-2.62.87,3.78,3.78,0,0,1-2.61-.87A3.41,3.41,0,0,1,281.41,17.33Zm1.69,0c0,1.37.63,2.06,1.89,2.06a1.87,1.87,0,0,0,1.41-.51,2.15,2.15,0,0,0,.5-1.55V12.67a2.15,2.15,0,0,0-.5-1.55,1.87,1.87,0,0,0-1.41-.51c-1.26,0-1.89.69-1.89,2.06Z" style="fill:#4d4d4d"/><path d="M311.34,20.26V9.67a.49.49,0,0,1,.16-.38.52.52,0,0,1,.4-.16h3q3.68,0,3.68,3.26a3.41,3.41,0,0,1-.61,2.13,3,3,0,0,1-1.65,1l2.24,4.21a.53.53,0,0,1,.06.24.79.79,0,0,1-.32.6,1.1,1.1,0,0,1-.7.27.75.75,0,0,1-.67-.5l-2.34-4.59H313v4.48a.48.48,0,0,1-.25.41,1.16,1.16,0,0,1-.6.15,1.13,1.13,0,0,1-.59-.15A.47.47,0,0,1,311.34,20.26ZM313,14.44h1.92c1.32,0,2-.63,2-1.9a1.72,1.72,0,0,0-2-1.91H313Z" style="fill:#4d4d4d"/><path d="M341.41,20.3V9.7a.49.49,0,0,1,.21-.39,1,1,0,0,1,.54-.16H345a3.82,3.82,0,0,1,2.62.87,3.41,3.41,0,0,1,1,2.7v4.56a3.41,3.41,0,0,1-1,2.7,3.82,3.82,0,0,1-2.62.87h-2.83a1,1,0,0,1-.54-.16A.49.49,0,0,1,341.41,20.3Zm1.69-1H345c1.27,0,1.91-.68,1.91-2.06V12.72c0-1.38-.64-2.06-1.91-2.06H343.1Z" style="fill:#4d4d4d"/><path d="M371.5,20.29V9.71a.48.48,0,0,1,.22-.41.94.94,0,0,1,.53-.15h5.69a.47.47,0,0,1,.42.23.89.89,0,0,1,.14.51,1,1,0,0,1-.15.54.47.47,0,0,1-.41.23h-4.75v3.66h2.47a.48.48,0,0,1,.4.2.74.74,0,0,1,.16.49.72.72,0,0,1-.15.45.45.45,0,0,1-.41.2h-2.47v3.68h4.75a.47.47,0,0,1,.41.23,1,1,0,0,1,.15.54.89.89,0,0,1-.14.51.47.47,0,0,1-.42.23h-5.69a.94.94,0,0,1-.53-.15A.48.48,0,0,1,371.5,20.29Z" style="fill:#4d4d4d"/><path d="M401.34,20.26V9.67a.49.49,0,0,1,.16-.38.52.52,0,0,1,.4-.16h3q3.68,0,3.68,3.26a3.41,3.41,0,0,1-.61,2.13,3,3,0,0,1-1.65,1l2.24,4.21a.53.53,0,0,1,.06.24.79.79,0,0,1-.32.6,1.08,1.08,0,0,1-.7.27.75.75,0,0,1-.67-.5l-2.34-4.59H403v4.48a.48.48,0,0,1-.25.41,1.16,1.16,0,0,1-.6.15,1.13,1.13,0,0,1-.59-.15A.47.47,0,0,1,401.34,20.26ZM403,14.44h1.92c1.32,0,2-.63,2-1.9a1.72,1.72,0,0,0-2-1.91H403Z" style="fill:#4d4d4d"/><path d="M15,2A13,13,0,1,1,2,15,13,13,0,0,1,15,2m0-2A15,15,0,1,0,30,15,15,15,0,0,0,15,0Z" style="fill:#018f6e"/><path d="M15,6a9,9,0,1,1-9,9,9,9,0,0,1,9-9m0-2A11,11,0,1,0,26,15,11,11,0,0,0,15,4Z" style="fill:#018f6e"/><path d="M208,2V28H182V2h26m2-2H180V30h30V0Z" style="fill:#018f6e"/><path d="M204,6V24H186V6h18m2-2H184V26h22V4Z" style="fill:#018f6e"/></svg>